<?xml version="1.0" encoding="UTF-8" standalone="no"?>
<!DOCTYPE svg PUBLIC "-//W3C//DTD SVG 1.1//EN" "http://www.w3.org/Graphics/SVG/1.1/DTD/svg11.dtd">
<svg width="100%" height="100%" viewBox="0 0 3000 3000" version="1.1" xmlns="http://www.w3.org/2000/svg" xmlns:xlink="http://www.w3.org/1999/xlink" xml:space="preserve" xmlns:serif="http://www.serif.com/" style="fill-rule:evenodd;clip-rule:evenodd;stroke-linecap:round;stroke-linejoin:round;stroke-miterlimit:1.5;">
    <rect x="-235.824" y="0" width="3460.523" height="3463.607" style="fill:rgb(0,17,28);"/>
    <g id="Layer1">
        <path d="M1989.057,1437.837L1946.045,1484.917L1523.153,1484.917C1523.153,1484.917 1454.338,1481 1412.562,1538.034C1412.562,1538.034 1383.228,1563.54 1382.047,1637.208C1382.047,1637.208 1383.591,1685.641 1422.643,1722.227C1422.643,1722.227 1432.197,1745.573 1494.389,1762.446L1905.688,1762.446C1905.688,1762.446 1961.734,1775.239 1961.734,1707.67C1961.734,1707.67 1962.824,1645.426 1985.71,1608.496C1985.71,1608.496 2016.225,1540.834 2069.627,1503.997C2069.627,1503.997 2109.587,1463.889 2199.679,1450.085C2199.679,1450.085 2249.81,1436.281 2328.641,1466.796C2328.641,1466.796 2383.132,1481.326 2434.717,1534.728C2434.717,1534.728 2490.343,1599.366 2502.831,1664.571C2502.831,1664.571 2519.405,1714.598 2508.507,1775.185C2508.507,1775.185 2658.811,1777.648 2679.7,1763.117C2679.7,1763.117 2651.546,1730.423 2656.995,1693.187C2656.995,1693.187 2657.449,1668.212 2684.695,1612.359C2684.695,1612.359 2703.634,1575.801 2670.806,1554.307C2669.704,1553.585 2668.622,1552.832 2667.563,1552.048C2654.885,1542.726 2575.302,1484.335 2549.973,1473.21C2549.774,1473.124 2549.576,1473.036 2549.378,1472.946C2549.34,1472.936 2431.305,1418.915 2389.535,1413.012C2389.535,1413.012 2261.935,1379.409 2208.806,1377.593C2208.806,1377.593 2023.082,1362.608 2012.638,1365.333L1748.974,1370.214C1748.974,1370.214 1594.832,1371.1 1559.958,1369.646C1559.958,1369.646 1438.624,1360.928 1400.844,1350.393C1400.844,1350.393 1258.077,1315.74 1238.097,1292.269C1238.097,1292.269 1281.327,1306.215 1334.001,1314.207C1334.001,1314.207 1403.023,1326.559 1462.237,1327.285C1462.237,1327.285 1603.641,1335.459 1637.698,1332.734C1637.698,1332.734 1862.928,1322.29 1868.377,1322.29C1868.377,1322.29 1944.665,1316.841 2020.044,1318.657C2020.044,1318.657 2116.766,1319.566 2191.237,1328.647C2191.237,1328.647 2291.137,1338.637 2353.348,1354.077C2353.348,1354.077 2451.886,1373.148 2524.086,1409.476C2524.086,1409.476 2669.396,1473.503 2719.346,1538.438C2719.346,1538.438 2752.495,1571.759 2728.882,1628.348C2728.882,1628.348 2700.274,1687.662 2702.545,1701.739C2702.545,1701.739 2702,1717.791 2721.617,1734.865C2721.617,1734.865 2763.03,1770.217 2713.988,1800.981C2713.988,1800.981 2640.97,1824.116 2555.6,1821.936L2445.892,1822.081C2445.892,1822.081 2466.598,1780.523 2466.235,1720.583C2466.235,1720.583 2467.688,1690.58 2450.251,1643.932C2450.251,1643.932 2428.909,1586.113 2377.142,1544.791C2377.142,1544.791 2337.636,1501.198 2233.649,1493.024C2233.649,1493.024 2181.921,1485.759 2115.131,1529.806C2115.131,1529.806 2067.867,1553.419 2031.993,1623.349C2031.993,1623.349 2014.284,1647.416 2007.927,1709.626C2007.927,1709.626 2007.525,1764.236 1982.934,1783.588C1979.876,1786 1976.984,1788.614 1974.277,1791.413C1966.781,1799.082 1946.154,1813.28 1898.197,1809.785C1896.037,1809.625 1893.871,1809.546 1891.705,1809.546C1854.151,1809.538 1505.36,1809.64 1505.36,1809.64C1505.36,1809.64 1413.406,1799.991 1366.294,1731.309C1366.294,1731.309 1327.129,1674.548 1337.346,1604.163C1337.346,1604.163 1344.222,1462.132 1500,1437.284L1989.057,1437.837Z" style="fill:rgb(250,163,7);stroke:rgb(250,163,7);stroke-width:1.67px;"/>
        <path d="M2020.499,1845.266L2045.332,1886.418C2045.332,1886.418 1843.829,1914.799 1712.568,1919.056C1712.568,1919.056 1497.333,1924.701 1388.491,1893.766C1387.822,1893.575 1387.15,1893.39 1386.477,1893.212C1372.98,1889.569 1242.146,1853.431 1177.592,1803.671C1177.592,1803.671 1047.04,1702.919 1034.269,1668.862L792.324,1668.862C792.324,1668.862 701.505,1660.348 712.858,1742.652L711.875,1810.056L663.901,1811.475L663.901,1722.786C663.901,1722.786 664.61,1630.548 772.457,1620.615L1125.797,1622.034C1125.797,1622.034 1220.163,1636.806 1224.42,1557.175C1224.42,1557.175 1240.739,1479.673 1130.764,1483.22L768.2,1482.511C768.2,1482.511 645.002,1466.576 560.311,1588.95C556.521,1594.416 553.339,1600.28 550.824,1606.438C540.421,1633.376 512.697,1716.992 530.912,1809.233L391.669,1787.593C391.669,1787.593 302.98,1777.034 288.789,1678.505C288.789,1678.505 267.504,1607.469 262.182,1544.499C262.182,1544.499 257.169,1511.913 294.99,1451.608C297.498,1447.615 299.749,1443.467 301.73,1439.189C307.793,1426.025 320.912,1396.538 327.611,1374.376C331.153,1362.523 330.461,1349.806 325.651,1338.408C319.079,1322.817 311.107,1295.693 326.926,1281.09C326.926,1281.09 359.741,1253.596 411.181,1281.09C411.181,1281.09 434.24,1298.828 527.365,1280.203L827.136,1187.966C827.136,1187.966 912.278,1158.268 1140.211,1103.711C1140.211,1103.711 1290.597,1073.357 1399.58,1075.728C1400.972,1075.76 1402.365,1075.689 1403.747,1075.515C1419.425,1074.24 1503.048,1072.644 1696.295,1150.26C1696.295,1150.26 1723.811,1155.793 1913.585,1292.269C1913.585,1292.269 1716.672,1189.265 1628.869,1164.45C1628.869,1164.45 1556.143,1136.087 1447.055,1123.67C1447.055,1123.67 1331.758,1113.915 1223.557,1138.748L1019.571,1179.545C1019.571,1179.545 1003.905,1183.692 977.222,1195.971C959.738,1203.941 949.117,1222.007 950.655,1241.16C952.193,1260.314 965.561,1276.454 984.093,1281.531C984.093,1281.538 984.094,1281.538 984.095,1281.538C984.095,1281.538 1078.993,1293.955 1165.909,1335.639C1165.909,1335.639 1226.218,1368.454 1246.616,1391.513C1246.616,1391.513 1063.028,1313.466 898.066,1316.127C898.066,1316.127 661.264,1304.598 555.723,1325.883C555.723,1325.883 433.331,1353.377 374.441,1318.61C374.441,1318.61 390.051,1388.143 351.737,1439.938C351.737,1439.938 323.554,1485.031 313.432,1524.004C310.413,1535.613 309.669,1547.697 311.242,1559.589C314.422,1583.133 323.864,1643.21 343.223,1703.879C343.223,1703.879 348.189,1739.131 474.483,1755.45C474.483,1755.45 459.761,1671.93 522.731,1557.175C522.731,1557.175 580.379,1444.193 755.098,1436.211L1134.69,1435.324C1134.69,1435.324 1257.968,1422.908 1272.159,1548.847C1272.159,1548.847 1285.462,1686.316 1098.327,1670.352C1098.327,1670.352 1114.291,1716.471 1228.701,1783.875C1228.701,1783.875 1320.938,1849.505 1511.621,1865.47C1511.621,1865.47 1765.274,1883.208 1932.01,1853.94L2020.499,1845.266Z" style="fill:rgb(248,248,248);stroke:rgb(248,248,248);stroke-width:4.17px;"/>
    </g>
</svg>
