<?xml version="1.0" encoding="UTF-8" standalone="no"?>
<!DOCTYPE svg PUBLIC "-//W3C//DTD SVG 1.1//EN" "http://www.w3.org/Graphics/SVG/1.1/DTD/svg11.dtd">
<svg width="100%" height="100%" viewBox="0 0 3000 3000" version="1.1" xmlns="http://www.w3.org/2000/svg" xmlns:xlink="http://www.w3.org/1999/xlink" xml:space="preserve" xmlns:serif="http://www.serif.com/" style="fill-rule:evenodd;clip-rule:evenodd;stroke-linecap:round;stroke-linejoin:round;stroke-miterlimit:1.5;">
    <g id="Layer1">
        <rect x="-256.579" y="-98.684" width="3453.947" height="3275.066" style="fill:rgb(0,17,28);"/>
        <path d="M995.662,789.519L980.002,799.827C908.795,842.051 841.117,919.312 841.117,919.312L806.564,964.621L779.079,1006.517C779.079,1006.517 902.605,1002.964 953.469,1056.306C953.581,1056.423 953.703,1056.53 953.833,1056.626C956.663,1058.796 987.705,1083.718 1005.569,1145.939C1010.446,1162.801 1011.888,1180.471 1009.807,1197.901C1003.347,1249.896 971.428,1355.223 818.565,1360.768L668.6,1360.768L668.6,1512.925C668.6,1512.925 659.827,1666.465 705.059,1792.848C705.059,1792.848 761.077,2163.632 1254.547,2363.075C1425.671,2432.223 1616.348,2435.499 1789.746,2372.271C2011.851,2291.154 2295.9,2110.667 2391.125,1711.248L2025.801,1707.294C2025.801,1707.294 1968.332,1982.712 1631.163,2045.68C1198.827,2126.422 1050.204,1766.245 1032.102,1672.412C1032.102,1672.412 1328.186,1572.36 1355.712,1232.026C1355.917,1229.48 1356.151,1226.936 1356.416,1224.395C1360.583,1182.126 1377.833,895.878 1112.781,745.536L1099.96,740.583C1099.96,740.583 1066.513,748.81 995.662,789.519Z" style="fill:rgb(248,248,248);stroke:rgb(248,248,248);stroke-width:1px;"/>
        <path d="M2333.776,1180.841L1921.368,1180.841C1921.368,1180.841 1703.9,930.56 1398.401,1041.533C1398.401,1041.533 1398.807,1041.298 1398.401,1041.533C1378.122,1053.265 1383.651,1039.13 1374.286,1008.673C1354.499,944.313 1331.037,850.157 1153.418,719.518C1153.418,719.518 1389.299,643.838 1650.187,671.69C1870.063,695.164 2138.616,820.598 2309.502,1135.401L2333.776,1180.841Z" style="fill:rgb(250,163,7);stroke:rgb(250,163,7);stroke-width:1px;"/>
    </g>
</svg>
